<svg width="72" height="72" viewBox="0 0 72 72" fill="none" xmlns="http://www.w3.org/2000/svg">
<rect width="72" height="72" rx="36" fill="#FF7D6B"/>
<path d="M18.0001 54V46.2L27.7001 36.5L18.7501 27.5C18.4501 27.2 18.2251 26.8667 18.0751 26.5C17.9251 26.1333 17.8501 25.7667 17.8501 25.4C17.8501 25.0333 17.9251 24.6667 18.0751 24.3C18.2251 23.9333 18.4501 23.6 18.7501 23.3L23.2501 18.75C23.5501 18.45 23.8834 18.225 24.2501 18.075C24.6168 17.925 24.9834 17.85 25.3501 17.85C25.7168 17.85 26.0918 17.925 26.4751 18.075C26.8584 18.225 27.2001 18.45 27.5001 18.75L36.5001 27.75L46.3501 17.9C46.5168 17.7333 46.6834 17.625 46.8501 17.575C47.0168 17.525 47.2001 17.5 47.4001 17.5C47.6001 17.5 47.7834 17.525 47.9501 17.575C48.1168 17.625 48.2834 17.7333 48.4501 17.9L54.1001 23.55C54.2668 23.7167 54.3751 23.8833 54.4251 24.05C54.4751 24.2167 54.5001 24.4 54.5001 24.6C54.5001 24.8 54.4751 24.9833 54.4251 25.15C54.3751 25.3167 54.2668 25.4833 54.1001 25.65L44.2501 35.5L53.2501 44.5C53.5501 44.8 53.7751 45.1417 53.9251 45.525C54.0751 45.9083 54.1501 46.2833 54.1501 46.65C54.1501 47.0167 54.0751 47.3833 53.9251 47.75C53.7751 48.1167 53.5501 48.45 53.2501 48.75L48.7501 53.2C48.4501 53.5 48.1168 53.725 47.7501 53.875C47.3834 54.025 47.0168 54.1 46.6501 54.1C46.2834 54.1 45.9168 54.025 45.5501 53.875C45.1834 53.725 44.8501 53.5 44.5501 53.2L35.5501 44.25L25.8001 54H18.0001ZM29.8501 34.35L34.3501 29.85L30.7001 26.2L28.3001 28.6L26.2001 26.5L28.6001 24.1L25.4001 20.9L20.9001 25.4L29.8501 34.35ZM46.5501 51.1L51.0501 46.6L47.8501 43.4L45.4501 45.8L43.3501 43.7L45.7501 41.3L42.1001 37.65L37.6001 42.15L46.5501 51.1ZM21.0001 51H24.5001L45.2501 30.25L41.7501 26.75L21.0001 47.5V51ZM47.3501 28.15L50.8501 24.65L47.3501 21.15L43.8501 24.65L47.3501 28.15Z" fill="#2D2D2D"/>
</svg>
