<svg width="72" height="72" viewBox="0 0 72 72" fill="none" xmlns="http://www.w3.org/2000/svg">
<rect width="72" height="72" rx="36" fill="#71D4FF"/>
<path d="M19 52C18.2 52 17.5 51.7 16.9 51.1C16.3 50.5 16 49.8 16 49V23C16 22.2 16.3 21.5 16.9 20.9C17.5 20.3 18.2 20 19 20H53C53.8 20 54.5 20.3 55.1 20.9C55.7 21.5 56 22.2 56 23V49C56 49.8 55.7 50.5 55.1 51.1C54.5 51.7 53.8 52 53 52H19ZM19 49H53V27.2H19V49ZM27 45.4L24.9 43.3L30.05 38.1L24.85 32.9L27 30.8L34.3 38.1L27 45.4ZM36.5 45.6V42.6H47.5V45.6H36.5Z" fill="#2D2D2D"/>
</svg>
