<svg width="180" height="180" viewBox="0 0 180 180" fill="none" xmlns="http://www.w3.org/2000/svg">
<path d="M170 90C170 134.183 134.183 170 90 170C45.8172 170 10 134.183 10 90C10 45.8172 45.8172 10 90 10C134.183 10 170 45.8172 170 90Z" fill="white"/>
<path d="M107.784 138.391L101.155 123.304C99.9523 120.567 100.037 117.436 101.387 114.768L113 91.8067L102.379 94.3346L49.9013 132.253C46.9858 134.149 43.4688 125.301 44.2786 120.877C47.4023 103.814 70.5177 84.8551 71.1424 77.9034C71.6422 72.342 69.6847 66.3172 68.6435 64L48.2817 74.593C47.3062 75.1005 46.1907 75.2722 45.1077 75.0817L36.7413 73.6098C33.9124 73.1122 31.0001 73.4372 28.3505 74.5462L14.2911 80.4313C13.0416 89.9108 15.1658 114.684 33.6581 140.469C52.1503 166.253 87.1774 167.643 102.379 165.115L108.223 145.234C108.887 142.972 108.732 140.549 107.784 138.391Z" fill="#801F12" fill-opacity="0.24"/>
<path fill-rule="evenodd" clip-rule="evenodd" d="M147.895 131.54C134.962 149.532 113.85 161.25 90 161.25C50.6497 161.25 18.75 129.35 18.75 90C18.75 87.5161 18.8771 85.0618 19.1252 82.6434C20.4741 81.7864 21.9837 80.8809 23.5254 80.0415C26.8034 78.2569 29.7494 77.0407 31.5609 76.8595C35.9426 76.4214 42.5489 77.8177 45.3914 78.6298L46.53 78.9551L47.5982 78.4442L67.3776 68.9845C67.7908 70.0758 68.1449 71.465 68.2955 73.033C68.5649 75.8395 68.1257 78.6644 66.7462 80.8102C65.13 83.3243 62.4505 86.9358 59.3818 91.0719L59.3814 91.0723L59.3813 91.0724L59.3809 91.0731C57.1895 94.0266 54.7998 97.2476 52.457 100.527C49.7066 104.378 47.0633 108.258 45.0574 111.682C44.0546 113.394 43.1814 115.042 42.5293 116.551C41.8968 118.014 41.3806 119.552 41.2608 120.991C40.6564 128.242 44.5032 133.221 46.875 135L48.7072 136.374L50.5693 135.041C67.5244 122.9 102.141 98.2062 106.031 95.775C107.272 94.9993 108.817 94.7653 110.442 94.9097C111.784 95.0289 112.992 95.3921 113.778 95.7169L147.895 131.54ZM151.404 126.162L117.888 90.9699L117.511 90.5743L117.023 90.3299C115.657 89.647 113.466 88.9036 110.995 88.6842C108.516 88.464 105.478 88.7508 102.719 90.475C102.315 90.7275 101.613 91.1957 100.661 91.8461L79.3627 62.5608C77.4128 59.8796 73.8272 58.9719 70.8364 60.4023L45.9445 72.3071C42.4531 71.417 35.9298 70.1415 30.939 70.6406C27.7504 70.9594 23.8215 72.7641 20.5369 74.5523C20.496 74.5746 20.4552 74.5969 20.4144 74.6192C27.4461 42.6623 55.9305 18.75 90 18.75C129.35 18.75 161.25 50.6497 161.25 90C161.25 103.2 157.66 115.562 151.404 126.162ZM170 90C170 134.183 134.183 170 90 170C45.8172 170 10 134.183 10 90C10 45.8172 45.8172 10 90 10C134.183 10 170 45.8172 170 90ZM74.3081 66.2369L95.5248 95.4098C84.1008 103.407 62.4209 118.874 49.1743 128.353C48.1972 126.879 47.236 124.548 47.4892 121.51C47.5256 121.073 47.732 120.267 48.2665 119.03C48.7814 117.839 49.5196 116.43 50.4503 114.841C52.3116 111.664 54.8245 107.966 57.5429 104.16C59.6882 101.157 61.9932 98.0469 64.167 95.114C67.3773 90.7828 70.3016 86.8374 72.0036 84.1899C74.3742 80.5024 74.8725 76.1397 74.5169 72.4358C74.3084 70.2644 73.7867 68.121 73.0293 66.2815L73.533 66.0406C73.8049 65.9106 74.1308 65.9931 74.3081 66.2369Z" fill="#801F12"/>
</svg>
