<svg width="72" height="72" viewBox="0 0 72 72" fill="none" xmlns="http://www.w3.org/2000/svg">
<rect width="72" height="72" rx="36" fill="#B6E656"/>
<path d="M34.7 29.9H51.95C51.0167 27.4333 49.5333 25.2583 47.5 23.375C45.4667 21.4917 43.15 20.2 40.55 19.5L34.7 29.9ZM30.05 34.05L38.75 19.1C38.35 19.0667 37.9 19.0417 37.4 19.025C36.9 19.0083 36.4333 19 36 19C33.6 19 31.4 19.4333 29.4 20.3C27.4 21.1667 25.6 22.3667 24 23.9L30.05 34.05ZM19.5 40.35H31.35L22.85 25.2C21.5833 26.7 20.625 28.375 19.975 30.225C19.325 32.075 19 34 19 36C19 36.7 19.0333 37.4333 19.1 38.2C19.1667 38.9667 19.3 39.6833 19.5 40.35V40.35ZM31.5 52.45L37.5 42.1H20.1C21.0333 44.5667 22.5083 46.7417 24.525 48.625C26.5417 50.5083 28.8667 51.7833 31.5 52.45ZM36 53C38.4 53 40.6083 52.5667 42.625 51.7C44.6417 50.8333 46.4333 49.6333 48 48.1L42 37.95L33.25 52.9C33.6833 52.9333 34.1417 52.9583 34.625 52.975C35.1083 52.9917 35.5667 53 36 53ZM49.2 46.8C50.3333 45.4 51.25 43.75 51.95 41.85C52.65 39.95 53 38 53 36C53 35.2667 52.9667 34.525 52.9 33.775C52.8333 33.025 52.7167 32.3 52.55 31.6H40.7L49.2 46.8ZM36 56C33.2667 56 30.6833 55.475 28.25 54.425C25.8167 53.375 23.6917 51.9417 21.875 50.125C20.0583 48.3083 18.625 46.1833 17.575 43.75C16.525 41.3167 16 38.7333 16 36C16 33.2333 16.525 30.6417 17.575 28.225C18.625 25.8083 20.0583 23.6917 21.875 21.875C23.6917 20.0583 25.8167 18.625 28.25 17.575C30.6833 16.525 33.2667 16 36 16C38.7667 16 41.3583 16.525 43.775 17.575C46.1917 18.625 48.3083 20.0583 50.125 21.875C51.9417 23.6917 53.375 25.8083 54.425 28.225C55.475 30.6417 56 33.2333 56 36C56 38.7333 55.475 41.3167 54.425 43.75C53.375 46.1833 51.9417 48.3083 50.125 50.125C48.3083 51.9417 46.1917 53.375 43.775 54.425C41.3583 55.475 38.7667 56 36 56Z" fill="#2D2D2D"/>
</svg>
